<?xml version="1.0" encoding="utf-8"?>
<!-- Generator: Adobe Illustrator 18.1.0, SVG Export Plug-In . SVG Version: 6.00 Build 0)  -->
<svg version="1.1" baseProfile="tiny" id="Layer_1" xmlns="http://www.w3.org/2000/svg" xmlns:xlink="http://www.w3.org/1999/xlink"
	 x="0px" y="0px" viewBox="0 0 35 35" xml:space="preserve">
<g>
	<path class="fill" fill="#1C1C1C" d="M33.8,18.3c0,4.5-1.6,8.4-4.8,11.5c-3.2,3.2-7,4.8-11.5,4.8c-4.5,0-8.4-1.6-11.5-4.8
		c-3.2-3.2-4.8-7-4.8-11.5c0-4.5,1.6-8.4,4.8-11.5S12.9,2,17.5,2C22,2,25.8,3.6,29,6.7C32.2,9.9,33.8,13.8,33.8,18.3z M31.8,18.3
		c0-4-1.4-7.3-4.2-10.1C24.8,5.4,21.4,4,17.5,4c-4,0-7.3,1.4-10.1,4.2C4.6,11,3.2,14.3,3.2,18.3c0,4,1.4,7.3,4.2,10.1
		c2.8,2.8,6.2,4.2,10.1,4.2c4,0,7.3-1.4,10.1-4.2C30.4,25.6,31.8,22.3,31.8,18.3z M26.6,22.7c-0.1,0.2-0.2,0.4-0.4,0.7
		c-0.2,0.3-0.5,0.8-1.1,1.4c-0.5,0.6-1.1,1.2-1.8,1.7c-0.6,0.5-1.5,1-2.6,1.4c-1.1,0.4-2.2,0.6-3.4,0.7c0,0-0.1,0-0.1,0
		c-1.1,0-2.2-0.2-3.3-0.6c-1-0.4-1.9-0.9-2.5-1.4c-0.6-0.5-1.2-1.1-1.8-1.8c-0.5-0.7-0.9-1.1-1-1.4c-0.1-0.3-0.3-0.5-0.4-0.7
		c-0.1-0.3-0.1-0.5,0-0.8c0.1-0.3,0.3-0.5,0.5-0.6c0.3-0.1,0.5-0.1,0.8,0c0.3,0.1,0.4,0.3,0.6,0.5c0.1,0.1,0.2,0.3,0.3,0.5
		c0.1,0.2,0.4,0.6,0.8,1.1c0.4,0.5,0.9,1,1.4,1.4c0.5,0.4,1.1,0.8,2,1.1c0.8,0.3,1.7,0.5,2.6,0.5c0,0,0.1,0,0.1,0
		c1,0,1.9-0.2,2.7-0.5s1.5-0.7,2-1.1c0.5-0.4,1-0.9,1.4-1.4c0.4-0.5,0.7-0.9,0.8-1.1s0.2-0.4,0.3-0.5c0.1-0.3,0.3-0.4,0.5-0.5
		c0.3-0.1,0.5-0.1,0.8,0c0.3,0.1,0.4,0.2,0.4,0.2s0,0.1,0.1,0.4C26.7,22.2,26.7,22.4,26.6,22.7z M10.3,15.2c0-0.6,0.2-1,0.6-1.4
		c0.4-0.4,0.9-0.6,1.4-0.6c0.6,0,1,0.2,1.4,0.6c0.4,0.4,0.6,0.9,0.6,1.4c0,0.6-0.2,1-0.6,1.4c-0.4,0.4-0.9,0.6-1.4,0.6
		c-0.6,0-1-0.2-1.4-0.6C10.5,16.3,10.3,15.8,10.3,15.2z M20.5,15.2c0-0.6,0.2-1,0.6-1.4c0.4-0.4,0.9-0.6,1.4-0.6
		c0.6,0,1,0.2,1.4,0.6c0.4,0.4,0.6,0.9,0.6,1.4c0,0.6-0.2,1-0.6,1.4c-0.4,0.4-0.9,0.6-1.4,0.6c-0.6,0-1-0.2-1.4-0.6
		C20.7,16.3,20.5,15.8,20.5,15.2z"/>
</g>
</svg>
