<?xml version="1.0" encoding="utf-8"?>
<!-- Generator: Adobe Illustrator 21.1.0, SVG Export Plug-In . SVG Version: 6.00 Build 0)  -->
<svg version="1.1" id="Слой_1" xmlns="http://www.w3.org/2000/svg" xmlns:xlink="http://www.w3.org/1999/xlink" x="0px" y="0px"
	 viewBox="0 0 102 68" style="enable-background:new 0 0 102 68;" xml:space="preserve">
<style type="text/css">
	.st0{clip-path:url(#SVGID_2_);fill:#254FBB;}
	.st1{clip-path:url(#SVGID_2_);fill:#EF4723;}
</style>
<g>
	<defs>
		<polygon id="SVGID_1_" points="0,768 1366,768 1366,0 1,2 		"/>
	</defs>
	<clipPath id="SVGID_2_">
		<use xlink:href="#SVGID_1_"  style="overflow:visible;"/>
	</clipPath>
	<path class="st0" d="M26.2,48.4c-4.4,0-8.8,0-13.2,0c-1.3,0-1.5,0.5-1.2,1.6c1,4.2,4.7,7.2,9.1,7.5c4.1,0.3,7.6-1.1,10.3-4.1
		c1-1.1,1.6-0.8,2.8,0.3c1.2,1.1,2.5,2.1,3.9,3c1.8,1.1,0.9,1.6-2.9,4.5c-2.7,2-5.8,3.5-9.1,3.9c-5.7,0.7-11.1-0.2-15.8-3.6
		c-6.4-4.6-8.9-11-8.1-18.8c1.1-11.6,11.1-18.8,22.8-17.8c7.4,0.6,13.1,5.5,15.1,12.9c0.8,3.1,1,6.2,1.1,9.3c0,1-0.3,1.4-1.4,1.4
		C35.2,48.3,30.7,48.4,26.2,48.4 M16.8,41.1c4.4,0.1,8.8,0,13.3,0.1c0.7,0,1.2-0.5,1.1-1.2c-0.3-1.9-0.8-3.6-2.1-5
		c-3-3.2-6.8-3.5-10.7-2.6c-3.9,0.9-5.8,3.9-6.7,7.6c-0.2,0.8,0,1.2,1,1.2C14.1,41.1,15.4,41,16.8,41.1"/>
	<path class="st0" d="M53.4,44.8c0-3.1-0.1-6.3,0-9.4c0-1.3-0.4-1.7-1.7-1.6c-1.7,0.1-3.5,0-5.2,0c-0.8,0-1.1-0.3-1.1-1.1
		c0-2,0-4,0-6.1c0-0.8,0.3-1.1,1.1-1.1c1.8,0,3.6-0.1,5.4,0c1.3,0.1,1.6-0.4,1.5-1.6c-0.1-2.8,0-5.5,0-8.3c0-0.9,0.3-1.2,1.2-1.2
		c2.4,0.1,4.9,0.1,7.3,0c0.9,0,1.1,0.3,1.1,1.1c0,2.8,0,5.5,0,8.3c0,1.2,0.2,1.7,1.6,1.7c2.6-0.1,5.2,0,7.8,0c0.9,0,1.2,0.3,1.2,1.2
		c-0.1,1.9-0.1,3.9,0,5.8c0,0.9-0.3,1.2-1.2,1.2c-2.7,0-5.4,0-8,0c-1,0-1.3,0.2-1.3,1.2c0,5.5,0,10.9,0,16.3c0,0.8,0.1,1.7,0.4,2.5
		c0.7,2.3,2.7,3.5,5.5,3.2c1.3-0.1,2.5-0.2,3.7-0.8c0.7-0.3,0.9-0.1,0.9,0.6c0,2.1,0,4.2,0,6.3c0,0.6-0.2,0.9-0.7,1
		c-4.6,1.3-9.3,1.5-13.8-0.2c-2.8-1-4.3-3.2-5-6.1c-0.9-3.5-0.5-7-0.6-10.5C53.4,46.6,53.4,45.7,53.4,44.8"/>
	<path class="st0" d="M81.4,45c0-5.9,0-11.7,0-17.6c0-1.5,0.4-1.9,1.8-1.8c2,0.1,3.9,0,5.9,0c2,0,2,0,2,2.1c0,8.7,0,17.5,0,26.2
		c0,3.5-0.1,6.9,0.1,10.4c-2.7-0.1-5.4-0.2-8.1-0.1c-1.3,0.1-1.8-0.3-1.7-1.7C81.4,56.7,81.4,50.8,81.4,45"/>
	<path class="st1" d="M95.5,16.9V8.3v0l-9.1-5.6v0v0l-8.9,5.5v9.7l7.5,4.7c0,0,0,0,0,0c0,0.5,0.4,0.8,0.8,0.8c0.5,0,0.8-0.4,0.8-0.8
		s-0.4-0.8-0.8-0.8c-0.1,0-0.2,0-0.3,0l-7.2-4.5v-2.9l6.6,4.1c0,0.4,0.4,0.8,0.8,0.8c0.5,0,0.8-0.4,0.8-0.8s-0.4-0.8-0.8-0.8
		c-0.1,0-0.2,0-0.3,0.1l-7.1-4.4v-3l6.6,4.1c0,0.5,0.4,0.8,0.8,0.8c0.5,0,0.8-0.4,0.8-0.8s-0.4-0.8-0.8-0.8c-0.1,0-0.2,0-0.3,0.1
		l-7.1-4.4V8.7l2-1.2l7.9,5v8.2c-0.2,0.1-0.3,0.4-0.3,0.7c0,0.5,0.4,0.8,0.8,0.8c0.5,0,0.8-0.4,0.8-0.8c0-0.3-0.1-0.5-0.4-0.7v-8.7
		h0l-8-5l2-1.2l8.3,5.2v7.9c-0.2,0.1-0.4,0.4-0.4,0.7c0,0.5,0.4,0.8,0.8,0.8c0.5,0,0.8-0.4,0.8-0.8c0-0.3-0.1-0.5-0.4-0.7v-8.4h0
		l-8.3-5.2l2.2-1.4l8.2,5.1v8.1c-0.2,0.1-0.4,0.4-0.4,0.7c0,0.5,0.4,0.8,0.8,0.8c0.5,0,0.8-0.4,0.8-0.8
		C95.8,17.3,95.7,17.1,95.5,16.9"/>
</g>
</svg>
