<?xml version="1.0" encoding="utf-8"?>
<!-- Generator: Adobe Illustrator 18.1.0, SVG Export Plug-In . SVG Version: 6.00 Build 0)  -->
<svg version="1.1" baseProfile="tiny" id="Layer_1" xmlns="http://www.w3.org/2000/svg" xmlns:xlink="http://www.w3.org/1999/xlink"
	 x="0px" y="0px" viewBox="0 0 35 35" xml:space="preserve">
<g display="none">
	<path class="fill" display="inline" fill="#1C1C1C" d="M33.8,18.3c0,4.5-1.6,8.4-4.8,11.5c-3.2,3.2-7,4.8-11.5,4.8c-4.5,0-8.4-1.6-11.5-4.8
		c-3.2-3.2-4.8-7-4.8-11.5c0-4.5,1.6-8.4,4.8-11.5S12.9,2,17.5,2C22,2,25.8,3.6,29,6.7C32.2,9.9,33.8,13.8,33.8,18.3z M31.8,18.3
		c0-4-1.4-7.3-4.2-10.1C24.8,5.4,21.4,4,17.5,4c-4,0-7.3,1.4-10.1,4.2C4.6,11,3.2,14.3,3.2,18.3c0,4,1.4,7.3,4.2,10.1
		c2.8,2.8,6.2,4.2,10.1,4.2c4,0,7.3-1.4,10.1-4.2C30.4,25.6,31.8,22.3,31.8,18.3z M26.6,22.7c-0.1,0.2-0.2,0.4-0.4,0.7
		c-0.2,0.3-0.5,0.8-1.1,1.4c-0.5,0.6-1.1,1.2-1.8,1.7c-0.6,0.5-1.5,1-2.6,1.4c-1.1,0.4-2.2,0.6-3.4,0.7c0,0-0.1,0-0.1,0
		c-1.1,0-2.2-0.2-3.3-0.6c-1-0.4-1.9-0.9-2.5-1.4c-0.6-0.5-1.2-1.1-1.8-1.8c-0.5-0.7-0.9-1.1-1-1.4c-0.1-0.3-0.3-0.5-0.4-0.7
		c-0.1-0.3-0.1-0.5,0-0.8c0.1-0.3,0.3-0.5,0.5-0.6c0.3-0.1,0.5-0.1,0.8,0c0.3,0.1,0.4,0.3,0.6,0.5c0.1,0.1,0.2,0.3,0.3,0.5
		c0.1,0.2,0.4,0.6,0.8,1.1c0.4,0.5,0.9,1,1.4,1.4c0.5,0.4,1.1,0.8,2,1.1c0.8,0.3,1.7,0.5,2.6,0.5c0,0,0.1,0,0.1,0
		c1,0,1.9-0.2,2.7-0.5s1.5-0.7,2-1.1c0.5-0.4,1-0.9,1.4-1.4c0.4-0.5,0.7-0.9,0.8-1.1s0.2-0.4,0.3-0.5c0.1-0.3,0.3-0.4,0.5-0.5
		c0.3-0.1,0.5-0.1,0.8,0c0.3,0.1,0.4,0.2,0.4,0.2s0,0.1,0.1,0.4C26.7,22.2,26.7,22.4,26.6,22.7z M10.3,15.2c0-0.6,0.2-1,0.6-1.4
		c0.4-0.4,0.9-0.6,1.4-0.6c0.6,0,1,0.2,1.4,0.6c0.4,0.4,0.6,0.9,0.6,1.4c0,0.6-0.2,1-0.6,1.4c-0.4,0.4-0.9,0.6-1.4,0.6
		c-0.6,0-1-0.2-1.4-0.6C10.5,16.3,10.3,15.8,10.3,15.2z M20.5,15.2c0-0.6,0.2-1,0.6-1.4c0.4-0.4,0.9-0.6,1.4-0.6
		c0.6,0,1,0.2,1.4,0.6c0.4,0.4,0.6,0.9,0.6,1.4c0,0.6-0.2,1-0.6,1.4c-0.4,0.4-0.9,0.6-1.4,0.6c-0.6,0-1-0.2-1.4-0.6
		C20.7,16.3,20.5,15.8,20.5,15.2z"/>
</g>
<g display="none">
	<path class="fill" display="inline" fill="#1C1C1C" d="M33.5,17.9h-2v13c0,0.6-0.2,1.1-0.6,1.4s-0.9,0.6-1.4,0.6h-24c-0.5,0-1-0.2-1.4-0.6
		c-0.4-0.4-0.6-0.9-0.6-1.4v-13h-2v-6c0-0.5,0.2-1,0.6-1.4C2.5,10.1,3,9.9,3.5,9.9H7C6,9,5.5,7.9,5.5,6.6c0-1,0.3-1.9,0.9-2.6
		C7,3.3,8,2.9,9.3,2.9c1.6,0,3.2,0.6,4.6,1.9s2.7,2.6,3.7,4.2c2.7-4,5.4-6.1,8.2-6.1c1.3,0,2.3,0.4,2.9,1.1c0.6,0.7,0.9,1.6,0.9,2.6
		c0,1.3-0.5,2.4-1.5,3.4h3.4c0.5,0,1,0.2,1.4,0.6c0.4,0.4,0.6,0.9,0.6,1.4V17.9z M3.5,15.9h13v-4h-13V15.9z M5.5,30.9h11v-13h-11
		V30.9z M7.5,6.5C7.5,7.5,8,8.4,9,9s2.1,0.9,3.4,0.9h3.4c-0.9-1.3-2-2.4-3.1-3.5c-1.2-1-2.3-1.5-3.4-1.5C8.1,4.9,7.5,5.5,7.5,6.5z
		 M31.5,11.9h-13v4h13V11.9z M29.5,17.9h-11v13h11V17.9z M19.3,9.9h3.4c1.3,0,2.4-0.3,3.3-0.9c1-0.6,1.5-1.4,1.5-2.5
		c0-1.1-0.6-1.6-1.8-1.6C23.8,4.9,21.6,6.6,19.3,9.9z"/>
</g>
<g>
	<path class="fill" fill="#1C1C1C" d="M32.5,16.8c1.2,1.2,1.8,2.6,1.8,4.3c0,1.6-0.6,3.1-1.8,4.2c-1.2,1.2-2.6,1.8-4.3,1.8c-0.3,0-0.9,0-2,0v1
		c0,1.7-0.6,3.1-1.8,4.3c-1.2,1.2-2.6,1.8-4.3,1.8h-12c-1.7,0-3.1-0.6-4.3-1.8c-1.2-1.2-1.8-2.6-1.8-4.3V13c0-0.6,0.2-1.1,0.6-1.4
		C3.2,11.2,3.7,11,4.2,11h20c0.5,0,1,0.2,1.4,0.6c0.4,0.4,0.6,0.9,0.6,1.4v2c1.1,0,1.8,0,2,0C29.9,15,31.3,15.6,32.5,16.8z M24.2,13
		h-20v15c0,1.1,0.4,2.1,1.2,2.8C6.2,31.6,7.1,32,8.2,32h12c1.1,0,2.1-0.4,2.8-1.2c0.8-0.8,1.2-1.7,1.2-2.8V13z M7.2,8V3
		c0-0.3,0.1-0.5,0.3-0.7S7.9,2,8.2,2c0.3,0,0.5,0.1,0.7,0.3S9.2,2.7,9.2,3v5c0,0.3-0.1,0.5-0.3,0.7S8.5,9,8.2,9
		C7.9,9,7.7,8.9,7.5,8.7S7.2,8.3,7.2,8z M13.2,8V3c0-0.3,0.1-0.5,0.3-0.7S13.9,2,14.2,2c0.3,0,0.5,0.1,0.7,0.3s0.3,0.4,0.3,0.7v5
		c0,0.3-0.1,0.5-0.3,0.7S14.5,9,14.2,9c-0.3,0-0.5-0.1-0.7-0.3S13.2,8.3,13.2,8z M19.2,8V3c0-0.3,0.1-0.5,0.3-0.7S19.9,2,20.2,2
		c0.3,0,0.5,0.1,0.7,0.3s0.3,0.4,0.3,0.7v5c0,0.3-0.1,0.5-0.3,0.7S20.5,9,20.2,9c-0.3,0-0.5-0.1-0.7-0.3S19.2,8.3,19.2,8z
		 M31.1,23.8c0.8-0.8,1.2-1.7,1.2-2.9c0-1.1-0.4-2.1-1.2-2.8c-0.8-0.8-1.7-1.1-2.9-1.1c-0.3,0-0.9,0-2,0v8c1.2,0,1.8,0,2,0
		C29.4,25,30.4,24.6,31.1,23.8z"/>
</g>
</svg>
